:FULLY-SPECIFIED
:FORCE-ALL-JOINTS-BE-3DOF
:DEGREES
816
root -4.28285 14.71 -40.3589 394.296 -74.9327 334.44
lfemur -68.8696 16.6215 -24.6593
ltibia 82.5404 -0 0
lfoot -1.74342 10.862 -0.00146044
ltoes -22.9755 0 0
rfemur -31.1589 -6.33871 22.3515
rtibia 69.1965 -0 0
rfoot -28.87 -27.7835 -0.0461203
rtoes -24.0817 0 0
lowerback 18.6818 1.0569 3.88683
upperback 0.692199 2.43632 3.23556
thorax -9.73297 1.01338 0.680001
lowerneck -2.34904 12.7921 3.74269
upperneck -1.59064 17.0358 -9.82482
head 1.16155 8.47604 -3.32071
lclavicle -5.91565e-15 -1.84634e-14 -6.07476e-30
lhumerus 98.6974 -32.7072 21.314
lradius 87.3662 -0 0
lwrist 22.9209 0 0
lhand -2.10334 20.9845 -0.0169485
lfingers 7.12502 -0 0
lthumb 18.3764 55.7371 -0.202614
rclavicle 6.56263e-15 -1.67925e-14 7.4661e-31
rhumerus 25.434 36.2506 -56.4817
rradius 65.056 -0 0
rwrist -11.3353 0 0
rhand -16.1084 -41.751 -0.0113946
rfingers 7.12502 -0 0
rthumb 12.8997 -71.5011 0.0110144
817
root -4.14739 14.7229 -40.3834 392.027 -74.3767 336.921
lfemur -68.1694 17.1402 -23.5369
ltibia 83.0349 -0 0
lfoot -1.75291 11.0638 -0.00144373
ltoes -22.3724 0 0
rfemur -32.0389 -7.49406 22.5287
rtibia 69.4545 -0 0
rfoot -29.148 -27.5339 -0.0442895
rtoes -24.0034 0 0
lowerback 18.6255 1.05804 3.69067
upperback 0.603956 2.39429 3.12691
thorax -9.80266 1.00147 0.683967
lowerneck -2.12521 12.7933 4.04046
upperneck -1.75224 17.0299 -10.1705
head 1.13498 8.48043 -3.50179
lclavicle -1.70673e-15 -1.55172e-14 -6.51606e-30
lhumerus 98.3775 -32.8102 21.2984
lradius 89.1827 -0 0
lwrist 22.9855 0 0
lhand -2.3299 21.1263 -0.028724
lfingers 7.12502 -0 0
lthumb 17.5301 56.2451 -0.198862
rclavicle 7.79666e-15 -1.75697e-14 7.98283e-31
rhumerus 26.1916 36.4922 -56.1566
rradius 65.5926 -0 0
rwrist -10.291 0 0
rhand -16.169 -41.444 -0.0110686
rfingers 7.12502 -0 0
rthumb 12.6319 -71.5574 0.00288409
818
root -4.01894 14.7402 -40.4004 390.069 -73.9321 339.063
lfemur -67.3744 17.7026 -22.2747
ltibia 83.2057 0 0
lfoot -1.7623 11.2636 -0.00139428
ltoes -21.5672 0 0
rfemur -32.8338 -8.5284 22.7033
rtibia 69.715 -0 0
rfoot -29.4193 -27.2904 -0.0413351
rtoes -23.9172 0 0
lowerback 18.5004 0.991298 3.3944
upperback 0.595062 2.23409 3.05112
thorax -9.75189 0.940477 0.812816
lowerneck -2.17975 12.9299 3.99244
upperneck -1.76273 17.2152 -10.3351
head 1.16764 8.57113 -3.53319
lclavicle 2.60071e-15 -1.2502e-14 -6.74361e-30
lhumerus 97.8658 -32.9748 21.2748
lradius 91.0899 -0 0
lwrist 23.0493 0 0
lhand -2.60985 21.3015 -0.042498
lfingers 7.12502 -0 0
lthumb 16.6979 56.7446 -0.187856
rclavicle 9.06135e-15 -1.83662e-14 8.33872e-31
rhumerus 26.4542 36.5749 -56.0431
rradius 66.1907 -0 0
rwrist -9.30338 0 0
rhand -16.2285 -41.1429 -0.0104335
rfingers 7.12502 -0 0
rthumb 12.5389 -71.5769 0
819
root -3.89351 14.7591 -40.4176 388.269 -73.3753 341.062
lfemur -66.4953 18.2931 -20.8929
ltibia 83.0856 -0 0
lfoot -1.7715 11.4592 -0.00131411
ltoes -20.582 0 0
rfemur -33.5256 -9.42099 22.8665
rtibia 69.973 -0 0
rfoot -29.6806 -27.0558 -0.0373996
rtoes -23.8252 0 0
lowerback 18.3635 0.884077 3.07114
upperback 0.559063 2.02232 3.03753
thorax -9.72692 0.857189 1.03849
lowerneck -2.41447 13.1137 3.7429
upperneck -1.53685 17.4792 -10.2564
head 1.26847 8.69224 -3.42734
lclavicle 6.94099e-15 -9.4638e-15 -6.74361e-30
lhumerus 97.1797 -33.1954 21.246
lradius 93.0619 -0 0
lwrist 23.1119 0 0
lhand -2.93814 21.5071 -0.0575565
lfingers 7.12502 -0 0
lthumb 15.8939 57.227 -0.17033
rclavicle 1.03445e-14 -1.91743e-14 8.52012e-31
rhumerus 26.512 36.7743 -55.9135
rradius 66.8392 -0 0
rwrist -8.38484 0 0
rhand -16.286 -40.8518 -0.00952212
rfingers 7.12502 -0 0
rthumb 12.6577 -71.4411 0.02861
820
root -3.77527 14.776 -40.4307 386.453 -72.8675 342.986
lfemur -65.5438 18.8969 -19.4125
ltibia 82.7369 -0 0
lfoot -1.78041 11.6486 -0.00120656
ltoes -19.4396 0 0
rfemur -34.0959 -10.151 23.0087
rtibia 70.224 -0 0
rfoot -29.9285 -26.8333 -0.0326761
rtoes -23.7292 0 0
lowerback 18.2522 0.885413 3.26605
upperback 0.490623 2.02441 2.54879
thorax -9.71323 0.840823 0.394933
lowerneck -2.17725 12.9692 4.27036
upperneck -1.64931 17.2716 -10.2103
head 1.222 8.59733 -3.52939
lclavicle 1.12484e-14 -6.4486e-15 -6.51606e-30
lhumerus 96.3362 -33.4662 21.2148
lradius 95.0728 -0 0
lwrist 23.1724 0 0
lhand -3.30969 21.7399 -0.0731758
lfingers 7.12502 -0 0
lthumb 15.132 57.684 -0.147474
rclavicle 1.16337e-14 -1.99863e-14 8.52012e-31
rhumerus 26.6818 37.3457 -55.5382
rradius 67.5266 -0 0
rwrist -7.5479 0 0
rhand -16.3408 -40.5745 -0.00838241
rfingers 7.12502 -0 0
rthumb 13.001 -71.0489 0.109594
821
root -3.66157 14.7792 -40.4415 384.902 -72.3114 344.638
lfemur -64.5329 19.5 -17.8552
ltibia 82.1772 -0 0
lfoot -1.78893 11.8298 -0.00107614
ltoes -18.1624 0 0
rfemur -34.5262 -10.698 23.1206
rtibia 70.4632 -0 0
rfoot -30.1598 -26.6257 -0.0274024
rtoes -23.6312 0 0
lowerback 18.3645 0.386855 4.72491
upperback 0.315096 1.56706 1.18217
thorax -9.8966 0.520432 -1.80598
lowerneck -2.18488 13.0674 5.22711
upperneck -1.63087 17.3761 -9.35259
head 1.23752 8.65083 -3.39655
lclavicle 1.54573e-14 -3.50236e-15 -6.07476e-30
lhumerus 95.3522 -33.7817 21.1845
lradius 97.0966 -0 0
lwrist 23.2303 0 0
lhand -3.71946 21.9966 -0.0886482
lfingers 7.12502 0 0
lthumb 14.4265 58.1069 -0.120884
rclavicle 1.29168e-14 -2.07944e-14 8.33872e-31
rhumerus 26.963 38.2482 -54.934
rradius 68.2419 -0 0
rwrist -6.80535 0 0
rhand -16.392 -40.315 -0.00707586
rfingers 7.12502 -0 0
rthumb 13.5493 -70.4227 0.233812
822
root -3.55096 14.8077 -40.4512 383.904 -71.7614 345.654
lfemur -63.4767 20.09 -16.2439
ltibia 81.4242 -0 0
lfoot -1.79696 12.0006 -0.000928467
ltoes -16.7728 0 0
rfemur -34.7975 -11.0414 23.1931
rtibia 70.6858 -0 0
rfoot -30.371 -26.4362 -0.0218532
rtoes -23.5333 0 0
lowerback 18.3057 0.399199 4.47946
upperback 0.266515 1.53442 1.19925
thorax -9.92616 0.517131 -1.63907
lowerneck -2.19703 13.1186 5.12933
upperneck -1.39431 17.4598 -9.24841
head 1.3024 8.68943 -3.33304
lclavicle 1.95021e-14 -6.71051e-16 -5.44674e-30
lhumerus 94.2448 -34.1357 21.1582
lradius 99.1075 -0 0
lwrist 23.285 0 0
lhand -4.16248 22.2743 -0.103308
lfingers 7.12502 -0 0
lthumb 13.7911 58.4876 -0.0924734
rclavicle 1.41815e-14 -2.15909e-14 7.98283e-31
rhumerus 27.3601 39.4404 -54.1125
rradius 68.974 -0 0
rwrist -6.16962 0 0
rhand -16.4389 -40.0772 -0.00567522
rfingers 7.12502 -0 0
rthumb 14.2836 -69.5846 0.390347
823
root -3.44487 14.8291 -40.4547 382.977 -71.1712 346.593
lfemur -62.3909 20.6559 -14.6029
ltibia 80.4953 -0 0
lfoot -1.80441 12.1591 -0.000770083
ltoes -15.2933 0 0
rfemur -34.8919 -11.1606 23.2187
rtibia 70.8871 -0 0
rfoot -30.5588 -26.2676 -0.0163312
rtoes -23.4373 0 0
lowerback 18.12 1.26021 3.18359
upperback 0.162983 2.46504 1.89471
thorax -9.96737 1.03897 -0.38617
lowerneck -1.99271 12.511 5.64096
upperneck -0.958507 16.6878 -10.0369
head 1.48471 8.2966 -3.71696
lclavicle 2.33169e-14 1.99934e-15 -4.67126e-30
lhumerus 93.0309 -34.5226 21.1388
lradius 101.079 -0 0
lwrist 23.3356 0 0
lhand -4.63344 22.5695 -0.116535
lfingers 7.12502 -0 0
lthumb 13.2401 58.8176 -0.0644135
rclavicle 1.54155e-14 -2.23681e-14 7.4661e-31
rhumerus 27.8812 40.8796 -53.0824
rradius 69.7117 -0 0
rwrist -5.65322 0 0
rhand -16.4808 -39.8652 -0.00426185
rfingers 7.12502 -0 0
rthumb 15.1849 -68.5568 0.567165
